<svg version="1.1" xmlns="http://www.w3.org/2000/svg" xmlns:xlink="http://www.w3.org/1999/xlink" width="402" height="402" viewBox="0,0,402,402"><g transform="translate(-39,21)"><g data-paper-data="{&quot;isPaintingLayer&quot;:true}" stroke="none" stroke-linecap="butt" stroke-linejoin="miter" stroke-miterlimit="10" stroke-dasharray="" stroke-dashoffset="0" style="mix-blend-mode: normal"><path d="M241.36923,173.18047l1.64448,3.331l3.67695,0.53575c1.25288,0.18138 1.75259,1.72015 0.84686,2.60425l-2.66191,2.59344l0.62824,3.66253c0.21382,1.24687 -1.09552,2.19824 -2.21506,1.60964l-3.28895,-1.72976l-3.28895,1.72976c-1.12074,0.5886 -2.42888,-0.36277 -2.21626,-1.60964l0.62944,-3.66253l-2.66071,-2.59344c-0.90692,-0.8841 -0.40722,-2.42287 0.84566,-2.60425l3.67815,-0.53575l1.64328,-3.331c0.56097,-1.13396 2.17782,-1.13396 2.73879,0" fill="#ffbf00" fill-rule="evenodd" stroke-width="1"/><path d="M39,381v-402h402v402z" fill="none" fill-rule="nonzero" stroke-width="0"/></g></g></svg>