<svg version="1.1" xmlns="http://www.w3.org/2000/svg" xmlns:xlink="http://www.w3.org/1999/xlink" width="49.53175" height="49.53175" viewBox="0,0,49.53175,49.53175"><g transform="translate(-215.23412,-155.23412)"><g data-paper-data="{&quot;isPaintingLayer&quot;:true}" fill-rule="nonzero" stroke="none" stroke-linecap="butt" stroke-linejoin="miter" stroke-miterlimit="10" stroke-dasharray="" stroke-dashoffset="0" style="mix-blend-mode: normal"><path d="M240,186.41c-3.54015,0 -6.41,-2.86985 -6.41,-6.41c0,-3.54015 2.86985,-6.41 6.41,-6.41c3.54015,0 6.41,2.86985 6.41,6.41c0,3.54015 -2.86985,6.41 -6.41,6.41zM240,174.59c-2.98786,0 -5.41,2.42214 -5.41,5.41c0,2.98786 2.42214,5.41 5.41,5.41c2.98786,0 5.41,-2.42214 5.41,-5.41c0,-2.98786 -2.42214,-5.41 -5.41,-5.41z" fill="#929497" stroke-width="1"/><path d="M240,180.71c-0.27614,0 -0.5,-0.22386 -0.5,-0.5v-2.92c0,-0.27614 0.22386,-0.5 0.5,-0.5c0.27614,0 0.5,0.22386 0.5,0.5v2.92c0,0.27614 -0.22386,0.5 -0.5,0.5z" fill="#929497" stroke-width="1"/><path d="M242,180.71h-2c-0.27614,0 -0.5,-0.22386 -0.5,-0.5c0,-0.27614 0.22386,-0.5 0.5,-0.5h2c0.27614,0 0.5,0.22386 0.5,0.5c0,0.27614 -0.22386,0.5 -0.5,0.5z" fill="#929497" stroke-width="1"/><path d="M239.5,175.69c0,-0.27614 0.22386,-0.5 0.5,-0.5c0.27614,0 0.5,0.22386 0.5,0.5c0,0.27614 -0.22386,0.5 -0.5,0.5c-0.27614,0 -0.5,-0.22386 -0.5,-0.5z" fill="#929497" stroke-width="1"/><path d="M240,184.81c-0.27614,0 -0.5,-0.22386 -0.5,-0.5c0,-0.27614 0.22386,-0.5 0.5,-0.5c0.27614,0 0.5,0.22386 0.5,0.5c0,0.27614 -0.22386,0.5 -0.5,0.5zM240,184.31z" fill="#929497" stroke-width="1"/><path d="M237.84,176.77c-0.22425,-0.00229 -0.41954,-0.1536 -0.47775,-0.37017c-0.05822,-0.21657 0.03488,-0.44541 0.22775,-0.55983c0.12107,-0.07964 0.27118,-0.10161 0.41,-0.06c0.12625,0.03445 0.23395,0.11703 0.3,0.23v0c0.09765,0.15945 0.09818,0.36007 0.00136,0.52003c-0.09682,0.15996 -0.2748,0.25254 -0.46136,0.23997z" fill="#929497" stroke-width="1"/><path d="M242.16,184.24h-0.13c-0.26412,-0.07306 -0.42021,-0.34511 -0.35,-0.61c0.03345,-0.12674 0.11629,-0.23479 0.23,-0.3c0.23769,-0.13654 0.54099,-0.05625 0.68,0.18v0c0.13654,0.23769 0.05625,0.54099 -0.18,0.68c-0.07761,0.03799 -0.16375,0.05522 -0.25,0.05z" fill="#929497" stroke-width="1"/><path d="M236.26,178.34c-0.21679,0.00272 -0.41064,-0.13458 -0.48,-0.34c-0.03562,-0.1282 -0.01757,-0.26538 0.05,-0.38c0.13901,-0.23625 0.44231,-0.31654 0.68,-0.18v0c0.17794,0.10001 0.27722,0.29814 0.25082,0.50054c-0.0264,0.2024 -0.17318,0.36844 -0.37082,0.41946zM236.39,177.62l-0.13,0.22z" fill="#929497" stroke-width="1"/><path d="M243.73,182.66c-0.08811,-0.00043 -0.17448,-0.02461 -0.25,-0.07c-0.23625,-0.13901 -0.31654,-0.44231 -0.18,-0.68c0.06521,-0.11371 0.17326,-0.19655 0.3,-0.23c0.12173,-0.05001 0.25827,-0.05001 0.38,0v0c0.27062,0.06904 0.43404,0.34438 0.365,0.615c-0.06904,0.27062 -0.34438,0.43404 -0.615,0.365z" fill="#929497" stroke-width="1"/><path d="M235.19,180c0,-0.27614 0.22386,-0.5 0.5,-0.5c0.27614,0 0.5,0.22386 0.5,0.5c0,0.27614 -0.22386,0.5 -0.5,0.5c-0.27614,0 -0.5,-0.22386 -0.5,-0.5z" fill="#929497" stroke-width="1"/><path d="M243.81,180c0,-0.27614 0.22386,-0.5 0.5,-0.5c0.27614,0 0.5,0.22386 0.5,0.5c0,0.27614 -0.22386,0.5 -0.5,0.5c-0.27614,0 -0.5,-0.22386 -0.5,-0.5z" fill="#929497" stroke-width="1"/><path d="M236.27,182.66c-0.17756,-0.00107 -0.34122,-0.09623 -0.43,-0.25c-0.07051,-0.11266 -0.09327,-0.24875 -0.06325,-0.37822c0.03002,-0.12947 0.11035,-0.24166 0.22325,-0.31178v0c0.12173,-0.05001 0.25827,-0.05001 0.38,0c0.12674,0.03345 0.23479,0.11629 0.3,0.23c0.06921,0.14797 0.06178,0.32042 -0.01991,0.46188c-0.08169,0.14146 -0.22733,0.2341 -0.39009,0.24812zM236.14,181.94l0.12,0.22v0z" fill="#929497" stroke-width="1"/><path d="M243.74,178.34h-0.13c-0.19764,-0.05102 -0.34442,-0.21706 -0.37082,-0.41946c-0.0264,-0.2024 0.07288,-0.40053 0.25082,-0.50054v0c0.23769,-0.13654 0.54099,-0.05625 0.68,0.18c0.08406,0.15357 0.08168,0.33991 -0.00628,0.49128c-0.08796,0.15137 -0.24868,0.24571 -0.42372,0.24872zM243.61,177.62l0.13,0.22v0z" fill="#929497" stroke-width="1"/><path d="M237.84,184.24c-0.08804,-0.00091 -0.17428,-0.02506 -0.25,-0.07c-0.23625,-0.13901 -0.31654,-0.44231 -0.18,-0.68v0c0.13901,-0.23625 0.44231,-0.31654 0.68,-0.18c0.23625,0.13901 0.31654,0.44231 0.18,0.68c-0.06838,0.11507 -0.18005,0.19792 -0.31,0.23z" fill="#929497" stroke-width="1"/><path d="M242.16,176.77c-0.08811,-0.00043 -0.17448,-0.02461 -0.25,-0.07c-0.12073,-0.06505 -0.20943,-0.17684 -0.24536,-0.30919c-0.03592,-0.13235 -0.01591,-0.27365 0.05536,-0.39081v0c0.13901,-0.23625 0.44231,-0.31654 0.68,-0.18c0.21413,0.10306 0.32614,0.3426 0.26794,0.57301c-0.05821,0.23041 -0.27055,0.38801 -0.50794,0.37699z" fill="#929497" stroke-width="1"/><path d="M215.23413,204.76588v-49.53175h49.53175v49.53175z" fill="none" stroke-width="0"/></g></g></svg>