<svg version="1.1" xmlns="http://www.w3.org/2000/svg" xmlns:xlink="http://www.w3.org/1999/xlink" width="355" height="355" viewBox="0,0,355,355"><g transform="translate(-62.5,-2.5)"><g data-paper-data="{&quot;isPaintingLayer&quot;:true}" stroke="none" stroke-linecap="butt" stroke-linejoin="miter" stroke-miterlimit="10" stroke-dasharray="" stroke-dashoffset="0" style="mix-blend-mode: normal"><path d="M239.08921,175.2825c-2.10052,0 -3.80528,1.70476 -3.80528,3.80528c0,2.10052 1.70476,3.80528 3.80528,3.80528c2.0853,0 3.80528,-1.70477 3.80528,-3.80528c0,-2.10052 -1.71999,-3.80528 -3.80528,-3.80528M246.6678,185.05446c0.44294,0.44141 0.44294,1.17202 0,1.61344c-0.2268,0.22832 -0.516,0.33487 -0.8052,0.33487c-0.30442,0 -0.59362,-0.10655 -0.80672,-0.33487l-2.13552,-2.12335c-0.24811,-0.24506 -0.62254,-0.27855 -0.92849,-0.11112c-1.32119,0.71692 -2.93311,0.97872 -4.61657,0.50078c-2.17206,-0.61494 -3.87073,-2.4856 -4.27257,-4.70789c-0.79606,-4.41108 3.15686,-8.16613 7.60904,-7.01693c1.68802,0.43533 3.13555,1.64692 3.86769,3.22839c0.91631,1.9757 0.70778,3.98946 -0.1446,5.56789c-0.16743,0.30595 -0.13394,0.67886 0.11112,0.92544l2.12183,2.12335" fill="#ffffff" fill-rule="evenodd" stroke-width="1"/><path d="M62.5,357.5v-355h355v355z" fill="none" fill-rule="nonzero" stroke-width="0"/></g></g></svg>