<svg version="1.1" xmlns="http://www.w3.org/2000/svg" xmlns:xlink="http://www.w3.org/1999/xlink" width="402" height="402" viewBox="0,0,402,402"><g transform="translate(-39,21)"><g data-paper-data="{&quot;isPaintingLayer&quot;:true}" stroke="none" stroke-linecap="butt" stroke-linejoin="miter" stroke-miterlimit="10" stroke-dasharray="" stroke-dashoffset="0" style="mix-blend-mode: normal"><path d="M243,176c0,1.65685 -1.3431,3 -3,3c-1.65685,0 -3,-1.34315 -3,-3c0,-1.65685 1.34315,-3 3,-3c1.6569,0 3,1.34315 3,3zM233.66,179c1.10457,0 2,-0.89543 2,-2c0,-1.10457 -0.89543,-2 -2,-2c-1.10457,0 -2,0.89543 -2,2c0,1.10457 0.89543,2 2,2zM235.27807,184.6538c-0.5211,0.22 -1.12895,0.3462 -1.77807,0.3462c-1.933,0 -3.5,-1.1193 -3.5,-2.5c0,-1.3807 1.567,-2.5 3.5,-2.5c1.19639,0 2.25257,0.4288 2.8838,1.0829c0.91045,-0.6672 2.19398,-1.0829 3.6162,-1.0829c1.4222,0 2.7058,0.4157 3.6162,1.0829c0.6312,-0.6541 1.6874,-1.0829 2.8838,-1.0829c1.933,0 3.5,1.1193 3.5,2.5c0,1.3807 -1.567,2.5 -3.5,2.5c-0.6491,0 -1.257,-0.1262 -1.7781,-0.3462c-0.6812,1.3661 -2.538,2.3462 -4.7219,2.3462c-2.18388,0 -4.04075,-0.9801 -4.72193,-2.3462zM246.66,179c1.1046,0 2,-0.89543 2,-2c0,-1.10457 -0.8954,-2 -2,-2c-1.1046,0 -2,0.89543 -2,2c0,1.10457 0.8954,2 2,2z" fill="#5376ec" fill-rule="evenodd" stroke-width="1"/><path d="M39,381v-402h402v402z" fill="none" fill-rule="nonzero" stroke-width="0"/></g></g></svg>