<svg version="1.1" xmlns="http://www.w3.org/2000/svg" xmlns:xlink="http://www.w3.org/1999/xlink" width="183" height="183" viewBox="0,0,183,183"><g transform="translate(-148.5,-88.5)"><g data-paper-data="{&quot;isPaintingLayer&quot;:true}" stroke="none" stroke-linecap="butt" stroke-linejoin="miter" stroke-miterlimit="10" stroke-dasharray="" stroke-dashoffset="0" style="mix-blend-mode: normal"><path d="M233,179.82349c0,-0.31109 0.11891,-0.60144 0.33321,-0.81713l4.34146,-4.34146c0.35672,-0.33598 0.85723,-0.42585 1.28723,-0.2392c0.43,0.18527 0.69546,0.59453 0.69546,1.06877v1.64671l6.0421,0.83926c0.92498,0.12029 1.62874,0.92498 1.62874,1.87208c0,0.08158 -0.00553,0.16453 -0.01521,0.24611c-0.13412,0.85447 -0.80054,1.51398 -1.62044,1.61768l-6.03518,0.86138v1.57482c0,0.47977 -0.28206,0.90701 -0.71759,1.08813c-0.43829,0.18112 -0.9236,0.08296 -1.26511,-0.25855l-4.34146,-4.34146c-0.21431,-0.21569 -0.33321,-0.50604 -0.33321,-0.81714" fill="#ffffff" fill-rule="evenodd" stroke-width="1"/><path d="M148.5,271.5v-183h183v183z" fill="none" fill-rule="nonzero" stroke-width="0"/></g></g></svg>