<svg version="1.1" xmlns="http://www.w3.org/2000/svg" xmlns:xlink="http://www.w3.org/1999/xlink" width="402" height="402" viewBox="0,0,402,402"><g transform="translate(-39,21)"><g data-paper-data="{&quot;isPaintingLayer&quot;:true}" stroke="none" stroke-linecap="butt" stroke-linejoin="miter" stroke-miterlimit="10" stroke-dasharray="" stroke-dashoffset="0" style="mix-blend-mode: normal"><path d="M239.5668,182.7466l-4.46586,-4.4659c-0.42532,-0.4253 -0.11451,-1.12705 0.47439,-1.12705h2.22473l1.32504,-5.25102c0.1309,-0.50874 0.6543,-0.81792 1.1614,-0.68705c0.3599,0.08016 0.6216,0.35825 0.7034,0.68705l1.3251,5.25102h2.1756c0.5889,0 0.8997,0.70175 0.4744,1.12705l-4.4658,4.4659c-0.2617,0.2633 -0.6707,0.2633 -0.9324,0zM244.6377,187.9855h-9.25883c-2.09386,0 -3.77877,-1.7012 -3.77877,-3.7787v-2.6992c0,-0.687 0.55618,-1.2268 1.22687,-1.2268c0.67069,0 1.22688,0.5398 1.22688,1.2268v2.6992c0,0.7197 0.5889,1.325 1.32502,1.325h9.25883c0.7197,0 1.3087,-0.6053 1.3087,-1.325v-2.6992c0,-0.687 0.5561,-1.2268 1.2268,-1.2268c0.6871,0 1.2269,0.5398 1.2269,1.2268v2.6992c0,2.0775 -1.6849,3.7787 -3.7624,3.7787z" fill="#ffffff" fill-rule="evenodd" stroke-width="1"/><path d="M228,191.58594v-24h24v24z" fill="#ffffff" fill-rule="nonzero" stroke-width="1"/><path d="M39,381v-402h402v402z" fill="none" fill-rule="nonzero" stroke-width="0"/></g></g></svg>