<svg version="1.1" xmlns="http://www.w3.org/2000/svg" xmlns:xlink="http://www.w3.org/1999/xlink" width="145" height="152.98165" viewBox="0,0,145,152.98165"><g transform="translate(-167.5,-103.50918)"><g data-paper-data="{&quot;isPaintingLayer&quot;:true}" stroke="none" stroke-linecap="butt" stroke-linejoin="miter" stroke-miterlimit="10" stroke-dasharray="" stroke-dashoffset="0" style="mix-blend-mode: normal"><path d="M235.83035,188.0011c-0.98163,0 -1.96193,-0.37275 -2.71009,-1.12091c-1.49367,-1.49367 -1.49367,-3.92386 0,-5.41752l2.81356,-2.81356c0.38867,-0.38867 1.01877,-0.38867 1.40744,0c0.38867,0.38867 0.38867,1.01877 0,1.40744l-2.81356,2.81356c-0.71765,0.71765 -0.71765,1.88632 0,2.60397c0.71632,0.71632 1.88499,0.71898 2.60397,0l2.81356,-2.81223c0.38867,-0.38867 1.01744,-0.38867 1.40612,0c0.38867,0.38867 0.38867,1.01744 0,1.40612l-2.81223,2.81223c-0.74683,0.74816 -1.72846,1.12091 -2.70876,1.12091zM243.36447,181.64307c-0.25337,0 -0.50939,-0.09684 -0.70306,-0.29184c-0.38867,-0.38867 -0.38867,-1.01744 0,-1.40612l2.81223,-2.81356c0.71765,-0.71765 0.71765,-1.88632 0,-2.60397c-0.71765,-0.71765 -1.88632,-0.71765 -2.60397,0l-2.81356,2.81356c-0.38867,0.38867 -1.01877,0.38867 -1.40744,0c-0.38867,-0.38867 -0.38867,-1.01877 0,-1.40744l2.81356,-2.81356c1.49234,-1.49499 3.92518,-1.49499 5.41752,0c1.49367,1.49367 1.49367,3.92386 0,5.41752l-2.81223,2.81356c-0.19367,0.195 -0.44837,0.29184 -0.70306,0.29184zM237.36314,182.63889c-0.38867,-0.38867 -0.38867,-1.01744 0,-1.40612l4.06447,-4.0658c0.38867,-0.38867 1.01877,-0.38867 1.40744,0c0.38867,0.38867 0.38867,1.01877 0,1.40744c0,0 -2.45296,2.46311 -4.10928,4.06447c-0.20339,0.19664 -0.97396,0.38868 -1.36263,0.00001z" fill="#ffffff" fill-rule="evenodd" stroke-width="1"/><path d="M167.5,256.49083v-152.98165h145v152.98165z" fill="none" fill-rule="nonzero" stroke-width="0"/></g></g></svg>