<svg version="1.1" xmlns="http://www.w3.org/2000/svg" xmlns:xlink="http://www.w3.org/1999/xlink" width="14" height="14" viewBox="0,0,14,14"><g transform="translate(-233,-173)"><g data-paper-data="{&quot;isPaintingLayer&quot;:true}" fill="#a3b0dc" fill-rule="evenodd" stroke="none" stroke-width="1" stroke-linecap="butt" stroke-linejoin="miter" stroke-miterlimit="10" stroke-dasharray="" stroke-dashoffset="0" style="mix-blend-mode: normal"><path d="M246.33809,177.35035l-0.88923,-0.89152l-3.13403,2.3746c-0.3577,0.27483 -0.87586,0.20277 -1.14998,-0.1659c-0.22231,-0.29661 -0.21729,-0.70551 0,-0.98536l2.36849,-3.14211l-0.8675,-0.87141c-0.24905,-0.24969 -0.07187,-0.66361 0.26911,-0.66361l3.67726,-0.00503c0.21228,0.00503 0.38778,0.18099 0.38778,0.38878v3.69177c0,0.34186 -0.41787,0.51447 -0.66191,0.2698"/><path d="M233.66191,182.64929l0.88923,0.89159l3.13403,-2.37479c0.3577,-0.27485 0.87586,-0.20111 1.14998,0.16592c0.22231,0.29664 0.21729,0.70557 0,0.98545l-2.37016,3.14237l0.86917,0.87148c0.24905,0.24971 0.07187,0.66367 -0.26911,0.66367l-3.67726,0.00503c-0.21228,-0.00503 -0.38778,-0.181 -0.38778,-0.38882v-3.69207c0,-0.34189 0.41787,-0.51451 0.66191,-0.26982"/><path d="M233.66191,177.35035c-0.24404,0.24467 -0.66191,0.07206 -0.66191,-0.2698v-3.69177c0,-0.2078 0.17551,-0.38376 0.38778,-0.38878l3.67726,0.00503c0.34098,0 0.51816,0.41392 0.26911,0.66361l-0.86917,0.87141l2.37016,3.14211c0.21729,0.27986 0.22231,0.68875 0,0.98536c-0.27412,0.36867 -0.79228,0.44073 -1.14998,0.1659l-3.13403,-2.3746l-0.88923,0.89152"/><path d="M246.33809,182.64929c0.24404,-0.24469 0.66191,-0.07206 0.66191,0.26982v3.69207c0,0.20782 -0.17551,0.38379 -0.38778,0.38882l-3.67726,-0.00503c-0.34098,0 -0.51816,-0.41395 -0.26911,-0.66367l0.8675,-0.87148l-2.36849,-3.14237c-0.21729,-0.27988 -0.22231,-0.68881 0,-0.98545c0.27412,-0.36703 0.79228,-0.44077 1.14998,-0.16592l3.13403,2.37479l0.88923,-0.89159"/></g></g></svg>