<svg version="1.1" xmlns="http://www.w3.org/2000/svg" xmlns:xlink="http://www.w3.org/1999/xlink" width="49.53175" height="49.53175" viewBox="0,0,49.53175,49.53175"><g transform="translate(-215.23413,-155.23413)"><g data-paper-data="{&quot;isPaintingLayer&quot;:true}" stroke-miterlimit="10" stroke-dasharray="" stroke-dashoffset="0" style="mix-blend-mode: normal"><path d="M235.12481,186.92069l-1.94511,0.81355l0.81629,-1.93824c0.55731,-1.32282 1.33014,-2.48092 2.30155,-3.44866l9.03735,-9.00395c0.38664,-0.38527 1.21255,-0.18715 1.84444,0.44246c0.6319,0.62961 0.83093,1.45231 0.44384,1.83758l-9.03689,9.00395c-0.97141,0.96775 -2.13408,1.73783 -3.46148,2.29331" fill="#ffffff" fill-rule="evenodd" stroke="#575e75" stroke-width="0.5" stroke-linecap="round" stroke-linejoin="round"/><path d="M238.8335,177.23213c0,0 1.19699,1.01579 1.9904,-0.70739c1.71678,-3.72915 3.75249,-2.6406 3.75249,-2.6406" fill="none" fill-rule="evenodd" stroke="#575e75" stroke-width="0.5" stroke-linecap="round" stroke-linejoin="round"/><path d="M247.78469,175.12587c0,0.21185 -0.06452,0.39946 -0.19812,0.53261l-4.27137,4.2558c0.12903,-0.13315 0.18806,-0.30565 0.18806,-0.51293c0,-0.39946 -0.23244,-0.89774 -0.6438,-1.31184c-0.62321,-0.62137 -1.43995,-0.82362 -1.83117,-0.45345l4.27137,-4.2558c0.38618,-0.38481 1.213,-0.1876 1.84627,0.4388c0.4109,0.4141 0.63876,0.90735 0.63876,1.30681" fill="#4c97ff" fill-rule="evenodd" stroke="#575e75" stroke-width="0.5" stroke-linecap="round" stroke-linejoin="round"/><path d="M235.9309,186.54155c-0.26218,0.13819 -0.5294,0.26127 -0.80714,0.37978l-1.94511,0.81355l0.81721,-1.93778c0.11805,-0.27637 0.24205,-0.54267 0.38115,-0.80394c0.31617,0.08373 0.66301,0.28598 0.96501,0.5866c0.30153,0.30107 0.50423,0.64608 0.58889,0.9618" fill="#4c97ff" fill-rule="evenodd" stroke="#575e75" stroke-width="0.5" stroke-linecap="round" stroke-linejoin="round"/><path d="M247.81998,175.09082c0,0.21185 -0.06452,0.39946 -0.19812,0.53261l-9.03323,9.00487c-0.97507,0.96637 -2.1382,1.73554 -3.46468,2.29286l-1.94511,0.81355l0.44566,-1.06018l0.88081,-0.36972c1.32648,-0.55731 2.48961,-1.32648 3.46468,-2.29286l9.03323,-9.00487c0.1336,-0.13315 0.19767,-0.32075 0.19767,-0.53261c0,-0.29605 -0.12354,-0.64105 -0.35644,-0.97141c0.11394,0.0787 0.22786,0.17251 0.33676,0.28094c0.4109,0.4141 0.63876,0.90735 0.63876,1.30681" fill="#575e75" fill-rule="evenodd" stroke="#575e75" stroke-width="0.5" stroke-linecap="round" stroke-linejoin="round" opacity="0.15"/><path d="M239.56194,176.95882c0,0.22833 -0.18486,0.41364 -0.41364,0.41364c-0.22833,0 -0.4141,-0.18531 -0.4141,-0.41364c0,-0.22879 0.18577,-0.41364 0.4141,-0.41364c0.22879,0 0.41364,0.18486 0.41364,0.41364z" fill="#575e75" fill-rule="evenodd" stroke="#575e75" stroke-width="0.5" stroke-linecap="round" stroke-linejoin="round"/><path d="M215.23414,204.76589v-49.53175h49.53175v49.53175z" fill="none" fill-rule="nonzero" stroke="none" stroke-width="0" stroke-linecap="butt" stroke-linejoin="miter"/></g></g></svg>