<svg version="1.1" xmlns="http://www.w3.org/2000/svg" xmlns:xlink="http://www.w3.org/1999/xlink" width="402" height="402" viewBox="0,0,402,402"><g transform="translate(-39,21)"><g data-paper-data="{&quot;isPaintingLayer&quot;:true}" stroke-miterlimit="10" stroke-dasharray="" stroke-dashoffset="0" style="mix-blend-mode: normal"><path d="M238.38459,178.86398c-0.59602,-0.50038 -0.97128,-1.2583 -0.97128,-2.09715c0,-1.53058 1.23624,-2.76683 2.76683,-2.76683c1.52323,0 2.75947,1.23624 2.75947,2.76683c0,0.84624 -0.36793,1.59681 -0.97138,2.09721c0.75792,0.36057 1.41282,0.93453 1.90584,1.65567c0.55925,0.82416 0.91246,1.847 0.96397,2.95815c0.01472,0.10302 0.01472,0.20604 0.01472,0.30906c0,2.95079 -9.35275,2.95079 -9.35275,0c0,-2.21493 1.18473,-4.11344 2.88456,-4.92289z" fill="#4c97ff" fill-rule="evenodd" stroke="#4c97ff" stroke-width="0.5" stroke-linecap="round" stroke-linejoin="round"/><path d="M39,381v-402h402v402z" fill="none" fill-rule="nonzero" stroke="none" stroke-width="0" stroke-linecap="butt" stroke-linejoin="miter"/></g></g></svg>