<svg version="1.1" xmlns="http://www.w3.org/2000/svg" xmlns:xlink="http://www.w3.org/1999/xlink" width="402" height="402" viewBox="0,0,402,402"><g transform="translate(-39,21)"><g data-paper-data="{&quot;isPaintingLayer&quot;:true}" stroke="none" stroke-linecap="butt" stroke-linejoin="miter" stroke-miterlimit="10" stroke-dasharray="" stroke-dashoffset="0" style="mix-blend-mode: normal"><path d="M239.0364,178.812c-0.1596,0 -0.312,0.0624 -0.4236,0.1752l-0.83762,0.8376c-0.1116,0.1116 -0.264,0.1752 -0.4236,0.1752h-1.9032c-0.1596,0 -0.312,-0.0636 -0.4236,-0.1752l-0.8376,-0.8376c-0.1128,-0.1128 -0.264,-0.1752 -0.4236,-0.1752h-1.5636c-0.3312,0 -0.6,-0.2688 -0.6,-0.6v-3.612c0,-0.3312 0.2688,-0.6 0.6,-0.6h1.5516c0.1596,0 0.312,0.0636 0.4236,0.1752l0.8496,0.8496c0.1116,0.1116 0.264,0.1752 0.4236,0.1752h1.9032c0.1596,0 0.312,-0.0636 0.4236,-0.1752l0.84962,-0.8496c0.1116,-0.1116 0.264,-0.1752 0.4236,-0.1752h8.7516c0.3312,0 0.6,0.2688 0.6,0.6v3.612c0,0.3312 -0.2688,0.6 -0.6,0.6zM239.0364,184.812c-0.1596,0 -0.312,0.0624 -0.4236,0.1752l-0.83762,0.8376c-0.1116,0.1116 -0.264,0.1752 -0.4236,0.1752h-1.9032c-0.1596,0 -0.312,-0.0636 -0.4236,-0.1752l-0.8376,-0.8376c-0.1128,-0.1128 -0.264,-0.1752 -0.4236,-0.1752h-1.5636c-0.3312,0 -0.6,-0.2688 -0.6,-0.6v-3.612c0,-0.3312 0.2688,-0.6 0.6,-0.6h1.5516c0.1596,0 0.312,0.0636 0.4236,0.1752l0.8496,0.8496c0.1116,0.1116 0.264,0.1752 0.4236,0.1752h1.9032c0.1596,0 0.312,-0.0636 0.4236,-0.1752l0.84962,-0.8496c0.1116,-0.1116 0.264,-0.1752 0.4236,-0.1752h6.3516c0.3312,0 0.6,0.2688 0.6,0.6v3.612c0,0.3312 -0.2688,0.6 -0.6,0.6z" fill="#a64cff" fill-rule="evenodd" stroke-width="1"/><path d="M39,381v-402h402v402z" fill="none" fill-rule="nonzero" stroke-width="0"/></g></g></svg>