<svg version="1.1" xmlns="http://www.w3.org/2000/svg" xmlns:xlink="http://www.w3.org/1999/xlink" width="49.53175" height="49.53175" viewBox="0,0,49.53175,49.53175"><g transform="translate(-215.23412,-155.23412)"><g data-paper-data="{&quot;isPaintingLayer&quot;:true}" stroke-miterlimit="10" stroke-dasharray="" stroke-dashoffset="0" style="mix-blend-mode: normal"><g fill-rule="evenodd" stroke="#001026" stroke-width="0.5" opacity="0.5"><path d="M239.38241,172.09121c0.06077,-0.04051 0.16204,-0.02025 0.1823,0.06077l0.52665,2.16737c0,0 1.29637,0.95203 1.68123,1.62047c0.64819,1.11407 0.66844,2.02559 0.66844,2.02559c0,0 1.43816,0.42537 1.68123,1.57995c0.24307,1.15458 -0.64819,3.34221 -4.45628,4.09168c-3.8081,0.74947 -6.86673,-0.28358 -8.30489,-2.59275c-1.43816,-2.30916 0.83049,-5.06396 0.70896,-4.90191l-0.42537,-3.62579c-0.02025,-0.08102 0.08102,-0.14179 0.16204,-0.10128l2.45095,1.60021c0,0 0.91151,-0.34435 1.86354,-0.38486c0.56716,-0.04051 1.05331,0 1.51919,0.08102z" fill="#bfbfbf" stroke-linecap="butt" stroke-linejoin="miter"/><path d="M246.10735,178.26923c-0.95203,0.76972 -2.41044,0.78998 -2.41044,0.78998M245.84402,180.53789c-1.27612,0.10128 -2.0661,-0.28358 -2.0661,-0.28358M229.84192,178.20847c0,0 1.742,0.56716 2.45095,1.19509M232.35364,180.11252c-0.871,0.34435 -2.36993,0.12153 -2.36993,0.12153" fill="none" stroke-linecap="round" stroke-linejoin="round"/></g><g fill-rule="evenodd" stroke="#001026" stroke-width="0.5" opacity="0.75"><path d="M241.408,174.11679c0.06077,-0.04051 0.16204,-0.02025 0.1823,0.06077l0.52665,2.16737c0,0 1.29637,0.95203 1.68123,1.62047c0.64819,1.11407 0.66844,2.02559 0.66844,2.02559c0,0 1.43816,0.42537 1.68123,1.57995c0.24307,1.15458 -0.64819,3.34221 -4.45628,4.09168c-3.8081,0.74947 -6.86673,-0.28358 -8.30489,-2.59275c-1.43816,-2.30916 0.83049,-5.06396 0.70896,-4.90191l-0.42537,-3.62579c-0.02025,-0.08102 0.08102,-0.14179 0.16204,-0.10128l2.45095,1.60021c0,0 0.91151,-0.34435 1.86354,-0.38486c0.56716,-0.04051 1.05331,0 1.51919,0.08102z" fill="#bfbfbf" stroke-linecap="butt" stroke-linejoin="miter"/><path d="M248.13293,180.29482c-0.95203,0.76972 -2.41044,0.78998 -2.41044,0.78998M247.8696,182.56347c-1.27612,0.10128 -2.0661,-0.28358 -2.0661,-0.28358M231.8675,180.23405c0,0 1.742,0.56716 2.45095,1.19509M234.37922,182.1381c-0.871,0.34435 -2.36993,0.12153 -2.36993,0.12153" fill="none" stroke-linecap="round" stroke-linejoin="round"/></g><g fill-rule="evenodd" stroke="#001026" stroke-width="0.5"><path d="M243.43314,176.14194c0.06077,-0.04051 0.16204,-0.02025 0.1823,0.06077l0.52665,2.16737c0,0 1.29637,0.95203 1.68123,1.62047c0.64819,1.11407 0.66844,2.02559 0.66844,2.02559c0,0 1.43816,0.42537 1.68123,1.57995c0.24307,1.15458 -0.64819,3.34221 -4.45628,4.09168c-3.8081,0.74947 -6.86673,-0.28358 -8.30489,-2.59275c-1.43816,-2.30916 0.83049,-5.06396 0.70896,-4.90191l-0.42537,-3.62579c-0.02025,-0.08102 0.08102,-0.14179 0.16204,-0.10128l2.45095,1.60021c0,0 0.91151,-0.34435 1.86354,-0.38486c0.56716,-0.04051 1.05331,0 1.51919,0.08102z" fill="#bfbfbf" stroke-linecap="butt" stroke-linejoin="miter"/><path d="M250.15808,182.31997c-0.95203,0.76972 -2.41044,0.78998 -2.41044,0.78998M249.89475,184.58862c-1.27612,0.10128 -2.0661,-0.28358 -2.0661,-0.28358M233.89265,182.2592c0,0 1.742,0.56716 2.45095,1.19509M236.40437,184.16325c-0.871,0.34435 -2.36993,0.12153 -2.36993,0.12153" fill="none" stroke-linecap="round" stroke-linejoin="round"/></g><path d="M215.23413,204.76588v-49.53175h49.53175v49.53175z" fill="none" fill-rule="nonzero" stroke="none" stroke-width="0" stroke-linecap="butt" stroke-linejoin="miter"/></g></g></svg>